<?xml version="1.0" encoding="utf-8"?>
<!-- Generator: Adobe Illustrator 23.0.3, SVG Export Plug-In . SVG Version: 6.00 Build 0)  -->
<svg version="1.1" id="Layer_1" xmlns="http://www.w3.org/2000/svg" xmlns:xlink="http://www.w3.org/1999/xlink" x="0px" y="0px"
	 viewBox="0 0 874.54 275.19" style="enable-background:new 0 0 874.54 275.19;" xml:space="preserve">
<style type="text/css">
	.st0{fill:#F0B826;}
	.st1{fill:#E7AA37;}
	.st2{fill:#595198;}
</style>
<g>
	<g>
		<polygon class="st0" points="195.39,0 195.39,275.19 114.46,194.26 114.46,113.34 		"/>
	</g>
	<g>
		<polygon class="st1" points="195.39,0 0,194.26 114.46,194.26 		"/>
	</g>
	<g>
		<g>
			<path class="st2" d="M739.23,153.13h-13.26v-10.98c-3.28,5.02-7.15,7.76-11.62,9.83c-4.48,2.07-9.66,3.11-15.55,3.11
				c-3.6,0-7.04-0.49-10.31-1.47s-6.14-2.46-8.6-4.42c-2.46-1.96-4.39-4.39-5.81-7.29c-1.42-2.89-2.13-6.25-2.13-10.07
				c0-5.02,1.12-9.22,3.36-12.61c2.24-3.38,5.29-6.14,9.17-8.27c3.87-2.13,8.4-3.65,13.59-4.58c5.18-0.93,10.72-1.39,16.62-1.39
				h10.81v-3.27c0-1.97-0.38-3.93-1.15-5.89c-0.76-1.97-1.91-3.74-3.44-5.32c-1.53-1.58-3.44-2.84-5.73-3.76
				c-2.29-0.93-5.02-1.39-8.19-1.39c-2.84,0-5.32,0.27-7.45,0.82c-2.13,0.55-4.07,1.23-5.81,2.05c-1.75,0.82-3.33,1.78-4.75,2.87
				c-1.42,1.09-2.78,2.13-4.09,3.11l-8.84-9.17c4.15-3.82,8.95-7.25,14.41-9.16c5.46-1.91,10.91-2.86,16.37-2.86
				c5.67,0,10.56,0.71,14.65,2.13c4.09,1.42,7.4,3.5,10.02,5.9c2.62,2.4,4.61,5.55,5.86,8.66c1.25,3.11,1.88,6.36,1.88,9.74V153.13z
				 M717.62,115.8c-3.49,0-7.07,0.19-10.72,0.57c-3.66,0.38-6.99,1.12-9.99,2.21c-3,1.09-5.46,2.62-7.37,4.58
				c-1.91,1.96-2.87,4.48-2.87,7.53c0,4.48,1.5,7.69,4.5,9.66c3,1.96,7.07,2.95,12.2,2.95c4.04,0,7.48-0.68,10.31-2.05
				c2.84-1.36,5.13-3.14,6.88-5.32c1.74-2.18,3-4.61,3.77-7.29c0.76-2.67,1.15-5.32,1.15-7.94v-4.91H717.62z"/>
			<path class="st2" d="M424.69,153.13h-13.26v-10.98c-3.28,5.02-7.15,7.76-11.62,9.83c-4.48,2.07-9.66,3.11-15.55,3.11
				c-3.6,0-7.04-0.49-10.31-1.47c-3.27-0.98-6.14-2.46-8.6-4.42c-2.46-1.96-4.39-4.39-5.81-7.29c-1.42-2.89-2.13-6.25-2.13-10.07
				c0-5.02,1.12-9.22,3.36-12.61c2.24-3.38,5.29-6.14,9.17-8.27c3.87-2.13,8.4-3.65,13.59-4.58c5.18-0.93,10.72-1.39,16.62-1.39
				h10.81v-3.27c0-1.97-0.38-3.93-1.15-5.89c-0.76-1.97-1.91-3.74-3.44-5.32c-1.53-1.58-3.44-2.84-5.73-3.76
				c-2.29-0.93-5.02-1.39-8.19-1.39c-2.84,0-5.32,0.27-7.45,0.82c-2.13,0.55-4.07,1.23-5.81,2.05c-1.75,0.82-3.33,1.78-4.75,2.87
				c-1.42,1.09-2.78,2.13-4.09,3.11l-8.84-9.17c4.15-3.82,8.95-6.68,14.41-8.6c5.46-1.91,10.91-2.86,16.37-2.86
				c5.67,0,10.56,0.71,14.65,2.13c4.09,1.42,7.45,3.33,10.07,5.73c2.62,2.4,4.56,5.16,5.81,8.27c1.25,3.11,1.88,6.36,1.88,9.74
				V153.13z M403.08,115.8c-3.49,0-7.07,0.19-10.72,0.57c-3.66,0.38-6.99,1.12-9.99,2.21c-3,1.09-5.46,2.62-7.37,4.58
				c-1.91,1.96-2.87,4.48-2.87,7.53c0,4.48,1.5,7.69,4.5,9.66c3,1.96,7.07,2.95,12.2,2.95c4.04,0,7.48-0.68,10.31-2.05
				c2.84-1.36,5.13-3.14,6.88-5.32c1.74-2.18,3-4.61,3.77-7.29c0.76-2.67,1.15-5.32,1.15-7.94v-4.91H403.08z"/>
			<path class="st2" d="M430.48,75.52h17.03l23.25,59.43l22.27-59.43h15.72l-30.45,77.61h-16.21L430.48,75.52z"/>
			<path class="st2" d="M516.37,47.69c0-2.7,0.97-5.02,2.92-6.97c1.95-1.95,4.27-2.92,6.97-2.92s5.02,0.97,6.97,2.92
				c1.95,1.95,2.92,4.27,2.92,6.97s-0.97,5.02-2.92,6.97c-1.95,1.95-4.27,2.92-6.97,2.92s-5.02-0.98-6.97-2.92
				C517.34,52.71,516.37,50.39,516.37,47.69z M518.89,75.52h14.74v77.61h-14.74V75.52z"/>
			<path class="st2" d="M555.78,37.21h35.63c7.42,0,13.53,1.01,18.34,3.03c4.8,2.02,8.6,4.58,11.38,7.69
				c2.78,3.11,5.13,7.02,6.22,10.89c1.09,3.87,1.9,10.18,1.9,13.79c0,3.6-0.81,9.91-1.9,13.79c-1.09,3.87-3.44,6.96-6.22,10.07
				c-2.78,3.11-6.58,5.68-11.38,7.69c-4.8,2.02-10.92,3.03-18.34,3.03H571.5v45.94h-15.72V37.21z M571.5,93.43h15.49
				c3.05,0,6.08-0.25,9.09-0.74c3-0.49,5.67-1.39,8.02-2.7c2.35-1.31,4.64-2.78,6.06-5.24c1.42-2.46,2.4-8.22,2.4-12.15
				c0-3.93-0.98-9.69-2.4-12.15c-1.42-2.46-3.71-4.75-6.06-6.06c-2.35-1.31-5.02-2.21-8.02-2.7c-3-0.49-6.03-0.74-9.09-0.74H571.5
				V93.43z"/>
			<path class="st2" d="M642.55,36.33h14.74v58.84v57.96h-14.74v-58.4V36.33z"/>
			<path class="st2" d="M757.29,75.52h14.74v11.95h0.33c1.85-4.15,5.08-7.5,9.66-10.07c4.58-2.56,9.88-3.85,15.88-3.85
				c3.71,0,7.29,0.57,10.72,1.72c3.44,1.15,6.44,2.92,9.01,5.32c2.56,2.4,4.61,5.49,6.14,9.25c1.53,3.76,2.29,8.21,2.29,13.34v49.94
				h-14.74v-45.84c0-3.6-0.49-6.68-1.47-9.25c-0.98-2.56-2.29-4.64-3.93-6.22c-1.64-1.58-3.52-2.73-5.65-3.44
				c-2.13-0.71-4.34-1.06-6.63-1.06c-3.06,0-5.89,0.49-8.51,1.47c-2.62,0.98-4.91,2.54-6.88,4.66c-1.97,2.13-3.49,4.83-4.58,8.11
				c-1.09,3.27-1.64,7.15-1.64,11.62v39.95h-14.74V75.52z"/>
			<path class="st2" d="M833.31,68.81c0-2.93,0.55-5.65,1.65-8.16c1.1-2.51,2.58-4.68,4.45-6.51c1.87-1.83,4.05-3.27,6.54-4.32
				c2.49-1.04,5.15-1.57,7.97-1.57c2.78,0,5.43,0.52,7.94,1.57c2.51,1.05,4.7,2.47,6.57,4.29c1.87,1.81,3.35,3.96,4.45,6.43
				c1.1,2.47,1.65,5.16,1.65,8.05c0,2.93-0.55,5.65-1.65,8.17c-1.1,2.51-2.58,4.68-4.45,6.51c-1.87,1.83-4.06,3.27-6.57,4.32
				c-2.51,1.04-5.16,1.57-7.94,1.57c-2.82,0-5.48-0.52-7.97-1.57c-2.49-1.05-4.67-2.47-6.54-4.29c-1.87-1.81-3.35-3.96-4.45-6.43
				C833.86,74.39,833.31,71.7,833.31,68.81z M836.61,68.81c0,2.46,0.45,4.74,1.35,6.85c0.9,2.11,2.13,3.94,3.71,5.5
				c1.58,1.56,3.41,2.78,5.5,3.68c2.09,0.9,4.34,1.35,6.76,1.35s4.67-0.45,6.76-1.35c2.09-0.9,3.92-2.14,5.5-3.71
				c1.58-1.58,2.81-3.44,3.71-5.58c0.9-2.14,1.35-4.46,1.35-6.95c0-2.45-0.45-4.75-1.35-6.87c-0.9-2.12-2.14-3.97-3.71-5.53
				c-1.58-1.56-3.41-2.78-5.5-3.66c-2.09-0.88-4.34-1.32-6.76-1.32s-4.67,0.45-6.76,1.35c-2.09,0.9-3.92,2.13-5.5,3.68
				c-1.58,1.56-2.81,3.41-3.71,5.55C837.06,63.94,836.61,66.28,836.61,68.81z M846.28,56.99h8.69c2.86,0,4.97,0.54,6.32,1.62
				c1.35,1.08,2.03,2.81,2.03,5.2c0,2.12-0.6,3.68-1.81,4.67c-1.21,0.99-2.69,1.58-4.45,1.76l6.82,10.45h-3.57l-6.49-10.17h-4.23
				v10.17h-3.3V56.99z M849.58,67.54h4.07c0.81,0,1.59-0.03,2.36-0.08c0.77-0.06,1.46-0.21,2.06-0.47c0.6-0.26,1.08-0.64,1.43-1.15
				c0.35-0.51,0.52-1.25,0.52-2.2c0-0.8-0.16-1.46-0.47-1.95c-0.31-0.5-0.72-0.87-1.24-1.13c-0.51-0.26-1.09-0.42-1.73-0.49
				c-0.64-0.07-1.27-0.11-1.9-0.11h-5.11V67.54z"/>
			<polygon class="st2" points="342.42,153.13 342.42,37.21 326.7,37.21 326.7,130.86 267.62,37.21 247.03,37.21 247.03,153.13 
				262.75,153.13 262.75,59.5 322.49,153.13 			"/>
		</g>
		<g>
			<g>
				<path class="st2" d="M268.12,202.97c1.73,1.07,3.07,2.59,4.03,4.56c0.96,1.97,1.44,4.26,1.44,6.87c0,2.94-0.52,5.55-1.57,7.81
					c-1.05,2.26-2.53,4.01-4.44,5.24c-1.91,1.23-4.12,1.85-6.63,1.85c-2.1,0-3.94-0.46-5.52-1.38c-1.58-0.92-2.76-2.21-3.53-3.86
					l-0.39,4.86h-4.47l3.09-38.92h4.47l-1.27,16.01c0.92-1.44,2.16-2.57,3.73-3.4c1.56-0.83,3.27-1.24,5.11-1.24
					C264.4,201.37,266.39,201.91,268.12,202.97z M266.74,222.63c1.51-1.99,2.26-4.73,2.26-8.23c0-2.94-0.7-5.24-2.1-6.87
					c-1.4-1.64-3.37-2.46-5.91-2.46c-2.65,0-4.73,1-6.24,3.01c-1.51,2.01-2.26,4.76-2.26,8.25c0,3.02,0.69,5.32,2.07,6.9
					c1.38,1.58,3.38,2.37,5.99,2.37C263.17,225.61,265.23,224.62,266.74,222.63z"/>
				<path class="st2" d="M298.3,202.09h4.58l-18.77,36.77h-4.58l5.3-10.32l-9.28-26.45h4.58l7.34,21.92L298.3,202.09z"/>
				<path class="st2" d="M349.59,228.92l-3.53-9.99h-20.32l-5.02,9.99h-4.75L336.12,190h3.92l14.08,38.92H349.59z M327.67,215.18
					h17.06l-7.01-19.93L327.67,215.18z"/>
				<path class="st2" d="M384.18,190l-3.09,38.92h-4.42l0.33-4.2c-0.92,1.44-2.16,2.56-3.73,3.37c-1.57,0.81-3.27,1.21-5.11,1.21
					c-2.25,0-4.23-0.52-5.96-1.57c-1.73-1.05-3.07-2.55-4.03-4.5c-0.96-1.95-1.44-4.23-1.44-6.85c0-2.98,0.52-5.6,1.57-7.87
					c1.05-2.26,2.53-4.02,4.44-5.27c1.91-1.25,4.12-1.88,6.63-1.88c2.1,0,3.93,0.46,5.49,1.38c1.56,0.92,2.73,2.19,3.51,3.81
					l1.32-16.56H384.18z M375.57,222.6c1.51-2.01,2.26-4.74,2.26-8.2c0-3.02-0.69-5.33-2.07-6.93c-1.38-1.6-3.38-2.4-5.99-2.4
					c-2.61,0-4.68,0.99-6.21,2.98c-1.53,1.99-2.29,4.71-2.29,8.17c0,2.98,0.71,5.29,2.13,6.93c1.42,1.64,3.4,2.46,5.93,2.46
					C371.98,225.61,374.06,224.61,375.57,222.6z"/>
				<path class="st2" d="M409.75,202.09h4.58l-13.69,26.83h-4.2L387,202.09h4.58l7.34,21.92L409.75,202.09z"/>
				<path class="st2" d="M416.03,228.92l2.15-26.89h4.47l-2.15,26.89H416.03z M418.62,190.39h5.41l-0.39,5.02h-5.47L418.62,190.39z"
					/>
				<path class="st2" d="M432.74,227.71c-1.9-1.07-3.35-2.59-4.36-4.56c-1.01-1.97-1.52-4.24-1.52-6.82c0-3.02,0.55-5.65,1.66-7.9
					c1.1-2.24,2.69-3.98,4.75-5.22c2.06-1.23,4.49-1.85,7.29-1.85c1.95,0,3.76,0.31,5.44,0.94c1.67,0.63,3.12,1.49,4.33,2.6
					l-1.71,3.31c-1.36-1.07-2.69-1.85-3.98-2.35c-1.29-0.5-2.65-0.75-4.09-0.75c-2.87,0-5.1,0.99-6.68,2.98
					c-1.58,1.99-2.37,4.75-2.37,8.28c0,2.91,0.72,5.17,2.15,6.79c1.44,1.62,3.46,2.43,6.07,2.43c1.4,0,2.71-0.25,3.92-0.75
					c1.21-0.5,2.48-1.28,3.81-2.35l1.27,3.31c-1.18,1.1-2.59,1.96-4.22,2.57c-1.64,0.61-3.36,0.91-5.16,0.91
					C436.83,229.31,434.64,228.78,432.74,227.71z"/>
				<path class="st2" d="M456.19,216.17v0.22c0,2.95,0.73,5.23,2.18,6.85c1.45,1.62,3.56,2.43,6.32,2.43c3.28,0,6.2-1.05,8.78-3.15
					l1.27,3.31c-1.1,1.07-2.6,1.91-4.5,2.54c-1.9,0.63-3.82,0.94-5.77,0.94c-3.9,0-7-1.18-9.3-3.53c-2.3-2.35-3.45-5.52-3.45-9.5
					c0-2.91,0.55-5.49,1.66-7.76c1.1-2.26,2.65-4.02,4.64-5.27c1.99-1.25,4.31-1.88,6.96-1.88c3.42,0,6.13,1.02,8.12,3.06
					s2.98,5.05,2.98,9.03c0,0.85-0.06,1.75-0.17,2.71H456.19z M459.23,207.03c-1.47,1.45-2.41,3.54-2.82,6.27h15.68
					c0.11-2.8-0.46-4.9-1.71-6.32c-1.25-1.42-3-2.13-5.25-2.13C462.67,204.85,460.7,205.58,459.23,207.03z"/>
				<path class="st2" d="M502.46,203.75c1.58,1.58,2.37,3.88,2.37,6.9c0,0.66-0.02,1.16-0.06,1.49l-1.32,16.78h-4.47l1.32-16.51
					c0.04-0.26,0.06-0.64,0.06-1.16c0-4.09-1.97-6.13-5.91-6.13c-2.5,0-4.49,0.75-5.96,2.24c-1.47,1.49-2.32,3.54-2.54,6.16
					l-1.21,15.4h-4.47l2.15-26.89h4.36l-0.33,4.14c0.92-1.51,2.17-2.69,3.75-3.53c1.58-0.85,3.37-1.27,5.36-1.27
					C498.58,201.37,500.88,202.17,502.46,203.75z"/>
				<path class="st2" d="M516.93,219.21c-0.04,0.26-0.05,0.61-0.05,1.05c0,3.64,1.8,5.47,5.41,5.47c0.88,0,1.69-0.07,2.43-0.22
					l-0.5,3.53c-0.77,0.18-1.64,0.28-2.6,0.28c-2.98,0-5.26-0.75-6.85-2.26c-1.58-1.51-2.37-3.64-2.37-6.4
					c0-0.52,0.02-0.92,0.05-1.21l1.1-13.86h-5.24l0.22-3.53h5.25l0.66-8.17h4.47l-0.66,8.17h7.67l-0.28,3.53h-7.67L516.93,219.21z"
					/>
			</g>
		</g>
	</g>
</g>
</svg>
